<?xml version="1.0" encoding="utf-8"?>
<!-- Generator: Adobe Illustrator 24.3.0, SVG Export Plug-In . SVG Version: 6.00 Build 0)  -->
<svg version="1.0" id="Layer_1" xmlns="http://www.w3.org/2000/svg" xmlns:xlink="http://www.w3.org/1999/xlink" x="0px" y="0px"
	 viewBox="0 0 1475 300" enable-background="new 0 0 1475 300" xml:space="preserve">
<g>
	<g>
		<g>
			<path fill="#058E3F" d="M136.05,42.98l44.95,44.96v-19.7h13.91v33.61l74.56,74.57c1.69-8.55,2.62-17.37,2.62-26.41
				c0-42.5-19.49-80.44-50.01-105.38c-23.44-19.16-53.4-30.67-86.03-30.67c-29.61,0-56.99,9.49-79.32,25.55
				C22.39,64.19,0,104.47,0,150c0,9.05,0.92,17.87,2.61,26.43L136.05,42.98z"/>
			<path fill="#069E2D" d="M136.05,64.9L7.24,193.71c9.21,27.11,26.69,50.39,49.49,66.79c22.33,16.06,49.71,25.55,79.32,25.55
				c32.64,0,62.59-11.51,86.03-30.67c19.54-15.97,34.51-37.26,42.79-61.65L136.05,64.9z M131.61,174.87h-18.13v-18.22h18.13V174.87z
				 M131.61,147.77h-18.13v-18.04h18.13V147.77z M158.62,174.87h-18.13v-18.22h18.13V174.87z M158.62,147.77h-18.13v-18.04h18.13
				V147.77z"/>
		</g>
	</g>
</g>
<g>
	<path fill="#4A4A4A" d="M403.03,187.47h-17.58l-34.22-56.13v56.13h-17.58v-85.31h17.58l34.28,56.25v-56.25h17.52V187.47z"/>
	<path fill="#4A4A4A" d="M487.82,187.47h-17.58V150.9h-34.28v36.56h-17.58v-85.31h17.58v34.57h34.28v-34.57h17.58V187.47z"/>
	<path fill="#4A4A4A" d="M552.39,169.89h-30.82l-5.86,17.58h-18.69l31.76-85.31h16.29L577,187.47h-18.69L552.39,169.89z
		 M526.31,155.65h21.33l-10.72-31.93L526.31,155.65z"/>
	<path fill="#4A4A4A" d="M584.97,187.47v-85.31h26.25c7.5,0,14.21,1.69,20.13,5.07c5.92,3.38,10.54,8.18,13.86,14.41
		c3.32,6.23,4.98,13.31,4.98,21.24v3.93c0,7.93-1.63,14.98-4.89,21.15c-3.26,6.17-7.86,10.96-13.8,14.36
		c-5.94,3.4-12.64,5.12-20.1,5.16H584.97z M602.55,116.39v56.95h8.5c6.88,0,12.13-2.25,15.76-6.74c3.63-4.49,5.49-10.92,5.57-19.28
		v-4.51c0-8.67-1.8-15.24-5.39-19.72c-3.59-4.47-8.85-6.71-15.76-6.71H602.55z"/>
	<path fill="#4A4A4A" d="M709.89,169.89h-30.82l-5.86,17.58h-18.69l31.76-85.31h16.29l31.93,85.31h-18.69L709.89,169.89z
		 M683.81,155.65h21.33l-10.72-31.93L683.81,155.65z"/>
	<path fill="#4A4A4A" d="M799.65,116.39h-26.13v71.07h-17.58v-71.07h-25.78v-14.24h69.49V116.39z"/>
	<path fill="#4A4A4A" d="M809.67,187.47v-85.31h26.25c7.5,0,14.21,1.69,20.13,5.07c5.92,3.38,10.54,8.18,13.86,14.41
		c3.32,6.23,4.98,13.31,4.98,21.24v3.93c0,7.93-1.63,14.98-4.89,21.15c-3.26,6.17-7.86,10.96-13.8,14.36
		c-5.94,3.4-12.64,5.12-20.1,5.16H809.67z M827.25,116.39v56.95h8.5c6.88,0,12.13-2.25,15.76-6.74c3.63-4.49,5.49-10.92,5.57-19.28
		v-4.51c0-8.67-1.8-15.24-5.39-19.72c-3.59-4.47-8.85-6.71-15.76-6.71H827.25z"/>
	<path fill="#4A4A4A" d="M952.23,102.15v56.19c0,9.34-2.92,16.72-8.76,22.15c-5.84,5.43-13.82,8.14-23.94,8.14
		c-9.96,0-17.87-2.64-23.73-7.91s-8.85-12.52-8.96-21.74v-56.84h17.58v56.31c0,5.59,1.34,9.66,4.01,12.22
		c2.67,2.56,6.38,3.84,11.1,3.84c9.88,0,14.9-5.19,15.06-15.59v-56.78H952.23z"/>
	<path fill="#4A4A4A" d="M1033.62,159.05c-0.67,9.18-4.05,16.41-10.17,21.68c-6.11,5.27-14.17,7.91-24.17,7.91
		c-10.94,0-19.54-3.68-25.81-11.04c-6.27-7.36-9.4-17.47-9.4-30.32v-5.21c0-8.2,1.44-15.43,4.34-21.68
		c2.89-6.25,7.02-11.04,12.39-14.38c5.37-3.34,11.61-5.01,18.72-5.01c9.84,0,17.77,2.64,23.79,7.91
		c6.01,5.27,9.49,12.68,10.43,22.21h-17.58c-0.43-5.51-1.96-9.5-4.6-11.98c-2.64-2.48-6.65-3.72-12.04-3.72
		c-5.86,0-10.25,2.1-13.15,6.3c-2.91,4.2-4.4,10.71-4.48,19.54v6.45c0,9.22,1.4,15.96,4.19,20.21c2.79,4.26,7.2,6.39,13.21,6.39
		c5.43,0,9.48-1.24,12.16-3.72c2.67-2.48,4.21-6.32,4.6-11.51H1033.62z"/>
	<path fill="#4A4A4A" d="M1114.6,187.47h-17.58V150.9h-34.28v36.56h-17.58v-85.31h17.58v34.57h34.28v-34.57h17.58V187.47z"/>
	<path fill="#4A4A4A" d="M1200.03,146.74c0,8.4-1.49,15.76-4.45,22.09c-2.97,6.33-7.22,11.21-12.74,14.65
		c-5.53,3.44-11.87,5.16-19.01,5.16c-7.07,0-13.38-1.7-18.93-5.1c-5.55-3.4-9.84-8.25-12.89-14.56c-3.05-6.31-4.59-13.56-4.63-21.77
		v-4.22c0-8.4,1.51-15.79,4.54-22.18c3.03-6.39,7.3-11.29,12.83-14.71c5.53-3.42,11.84-5.13,18.96-5.13
		c7.11,0,13.43,1.71,18.96,5.13c5.53,3.42,9.8,8.32,12.83,14.71c3.03,6.39,4.54,13.76,4.54,22.12V146.74z M1182.21,142.88
		c0-8.94-1.6-15.74-4.8-20.39c-3.2-4.65-7.77-6.97-13.71-6.97c-5.9,0-10.45,2.3-13.65,6.88c-3.2,4.59-4.83,11.32-4.86,20.19v4.16
		c0,8.71,1.6,15.47,4.8,20.27c3.2,4.8,7.81,7.21,13.83,7.21c5.9,0,10.43-2.31,13.59-6.94s4.77-11.38,4.8-20.24V142.88z"/>
	<path fill="#4A4A4A" d="M1259.73,169.89h-30.82l-5.86,17.58h-18.69l31.76-85.31h16.29l31.93,85.31h-18.69L1259.73,169.89z
		 M1233.66,155.65h21.33l-10.72-31.93L1233.66,155.65z"/>
	<path fill="#4A4A4A" d="M1292.08,179.15c0-2.7,0.91-4.88,2.72-6.56c1.82-1.68,4.09-2.52,6.83-2.52c2.77,0,5.07,0.84,6.88,2.52
		c1.82,1.68,2.72,3.87,2.72,6.56c0,2.66-0.9,4.82-2.7,6.47c-1.8,1.66-4.1,2.49-6.91,2.49c-2.77,0-5.06-0.83-6.86-2.49
		C1292.98,183.96,1292.08,181.8,1292.08,179.15z"/>
	<path fill="#4A4A4A" d="M1358.7,166.31l19.34-64.16h19.57l-29.71,85.31h-18.34l-29.59-85.31h19.51L1358.7,166.31z"/>
	<path fill="#4A4A4A" d="M1475.01,187.47h-17.58l-34.22-56.13v56.13h-17.58v-85.31h17.58l34.28,56.25v-56.25h17.52V187.47z"/>
</g>
<g>
</g>
<g>
</g>
<g>
</g>
<g>
</g>
<g>
</g>
<g>
</g>
</svg>
